<svg xmlns="http://www.w3.org/2000/svg" xmlns:xlink="http://www.w3.org/1999/xlink" width="400" zoomAndPan="magnify" viewBox="0 0 300 299.999988" height="400" preserveAspectRatio="xMidYMid meet" version="1.0"><defs><clipPath id="6fa0d92649"><path d="M 5.679688 95.304688 L 180.375 95.304688 L 180.375 270 L 5.679688 270 Z M 5.679688 95.304688 " clip-rule="nonzero"/></clipPath><clipPath id="c1c8cffdd4"><path d="M 93.027344 270 C 69.707031 270 47.746094 260.921875 31.269531 244.410156 C 14.757812 227.933594 5.679688 205.972656 5.679688 182.652344 C 5.679688 159.332031 14.757812 137.371094 31.269531 120.894531 C 47.746094 104.378906 69.707031 95.304688 93.027344 95.304688 C 116.347656 95.304688 138.308594 104.378906 154.785156 120.894531 C 171.300781 137.40625 180.375 159.332031 180.375 182.652344 C 180.375 205.972656 171.300781 227.933594 154.785156 244.410156 C 138.308594 260.921875 116.347656 270 93.027344 270 Z M 93.027344 100.539062 C 71.101562 100.539062 50.472656 109.09375 34.96875 124.59375 C 19.46875 140.09375 10.917969 160.726562 10.917969 182.652344 C 10.917969 204.574219 19.46875 225.207031 34.96875 240.710938 C 50.472656 256.210938 71.101562 264.761719 93.027344 264.761719 C 114.953125 264.761719 135.585938 256.210938 151.085938 240.710938 C 166.585938 225.207031 175.140625 204.574219 175.140625 182.652344 C 175.140625 160.726562 166.585938 140.09375 151.085938 124.59375 C 135.585938 109.09375 114.953125 100.539062 93.027344 100.539062 Z M 93.027344 100.539062 " clip-rule="nonzero"/></clipPath><clipPath id="7092ea8e31"><path d="M 119.625 95.304688 L 294.320312 95.304688 L 294.320312 270 L 119.625 270 Z M 119.625 95.304688 " clip-rule="nonzero"/></clipPath><clipPath id="4e8c4e2095"><path d="M 206.972656 270 C 183.652344 270 161.691406 260.921875 145.214844 244.410156 C 128.699219 227.933594 119.625 205.972656 119.625 182.652344 C 119.625 159.332031 128.699219 137.371094 145.214844 120.894531 C 161.691406 104.378906 183.652344 95.304688 206.972656 95.304688 C 230.292969 95.304688 252.253906 104.378906 268.730469 120.894531 C 285.242188 137.40625 294.320312 159.332031 294.320312 182.652344 C 294.320312 205.972656 285.242188 227.933594 268.730469 244.410156 C 252.253906 260.921875 230.292969 270 206.972656 270 Z M 206.972656 100.539062 C 185.046875 100.539062 164.414062 109.09375 148.914062 124.59375 C 133.414062 140.09375 124.859375 160.726562 124.859375 182.652344 C 124.859375 204.574219 133.414062 225.207031 148.914062 240.710938 C 164.414062 256.210938 185.046875 264.761719 206.972656 264.761719 C 228.898438 264.761719 249.527344 256.210938 265.03125 240.710938 C 280.53125 225.207031 289.082031 204.574219 289.082031 182.652344 C 289.082031 160.726562 280.53125 140.09375 265.03125 124.59375 C 249.527344 109.09375 228.898438 100.539062 206.972656 100.539062 Z M 206.972656 100.539062 " clip-rule="nonzero"/></clipPath><clipPath id="74a198d3af"><path d="M 117.980469 17.609375 L 292.675781 17.609375 L 292.675781 192.304688 L 117.980469 192.304688 Z M 117.980469 17.609375 " clip-rule="nonzero"/></clipPath><clipPath id="449b488a04"><path d="M 205.328125 192.304688 C 182.007812 192.304688 160.050781 183.226562 143.570312 166.714844 C 127.058594 150.238281 117.980469 128.277344 117.980469 104.957031 C 117.980469 81.636719 127.058594 59.675781 143.570312 43.199219 C 160.050781 26.683594 182.007812 17.609375 205.328125 17.609375 C 228.648438 17.609375 250.609375 26.683594 267.085938 43.199219 C 283.601562 59.710938 292.675781 81.636719 292.675781 104.957031 C 292.675781 128.277344 283.601562 150.238281 267.085938 166.714844 C 250.609375 183.226562 228.648438 192.304688 205.328125 192.304688 Z M 205.328125 22.84375 C 183.40625 22.84375 162.773438 31.398438 147.269531 46.898438 C 131.769531 62.398438 123.21875 83.03125 123.21875 104.957031 C 123.21875 126.882812 131.769531 147.511719 147.269531 163.015625 C 162.773438 178.515625 183.40625 187.066406 205.328125 187.066406 C 227.253906 187.066406 247.886719 178.515625 263.386719 163.015625 C 278.886719 147.511719 287.441406 126.882812 287.441406 104.957031 C 287.441406 83.03125 278.886719 62.398438 263.386719 46.898438 C 247.886719 31.398438 227.253906 22.84375 205.328125 22.84375 Z M 205.328125 22.84375 " clip-rule="nonzero"/></clipPath><clipPath id="e81952b36a"><path d="M 5.679688 17.609375 L 180.375 17.609375 L 180.375 192.304688 L 5.679688 192.304688 Z M 5.679688 17.609375 " clip-rule="nonzero"/></clipPath><clipPath id="ae89c43ffe"><path d="M 93.027344 192.304688 C 69.707031 192.304688 47.746094 183.226562 31.269531 166.714844 C 14.757812 150.238281 5.679688 128.277344 5.679688 104.957031 C 5.679688 81.636719 14.757812 59.675781 31.269531 43.199219 C 47.746094 26.683594 69.707031 17.609375 93.027344 17.609375 C 116.347656 17.609375 138.308594 26.683594 154.785156 43.199219 C 171.300781 59.710938 180.375 81.636719 180.375 104.957031 C 180.375 128.277344 171.300781 150.238281 154.785156 166.714844 C 138.308594 183.226562 116.347656 192.304688 93.027344 192.304688 Z M 93.027344 22.84375 C 71.101562 22.84375 50.472656 31.398438 34.96875 46.898438 C 19.46875 62.398438 10.917969 83.03125 10.917969 104.957031 C 10.917969 126.882812 19.46875 147.511719 34.96875 163.015625 C 50.472656 178.515625 71.101562 187.066406 93.027344 187.066406 C 114.953125 187.066406 135.585938 178.515625 151.085938 163.015625 C 166.585938 147.511719 175.140625 126.882812 175.140625 104.957031 C 175.140625 83.03125 166.585938 62.398438 151.085938 46.898438 C 135.585938 31.398438 114.953125 22.84375 93.027344 22.84375 Z M 93.027344 22.84375 " clip-rule="nonzero"/></clipPath></defs><g clip-path="url(#6fa0d92649)"><g clip-path="url(#c1c8cffdd4)"><path fill="#7c7b7f" d="M 5.679688 95.304688 L 180.375 95.304688 L 180.375 270 L 5.679688 270 Z M 5.679688 95.304688 " fill-opacity="1" fill-rule="nonzero"/></g></g><g clip-path="url(#7092ea8e31)"><g clip-path="url(#4e8c4e2095)"><path fill="#7c7b7f" d="M 119.625 95.304688 L 294.320312 95.304688 L 294.320312 270 L 119.625 270 Z M 119.625 95.304688 " fill-opacity="1" fill-rule="nonzero"/></g></g><g clip-path="url(#74a198d3af)"><g clip-path="url(#449b488a04)"><path fill="#7c7b7f" d="M 117.980469 17.609375 L 292.675781 17.609375 L 292.675781 192.304688 L 117.980469 192.304688 Z M 117.980469 17.609375 " fill-opacity="1" fill-rule="nonzero"/></g></g><g clip-path="url(#e81952b36a)"><g clip-path="url(#ae89c43ffe)"><path fill="#7c7b7f" d="M 5.679688 17.609375 L 180.375 17.609375 L 180.375 192.304688 L 5.679688 192.304688 Z M 5.679688 17.609375 " fill-opacity="1" fill-rule="nonzero"/></g></g></svg>