<svg xmlns="http://www.w3.org/2000/svg" xmlns:xlink="http://www.w3.org/1999/xlink" width="400" zoomAndPan="magnify" viewBox="0 0 300 299.999988" height="400" preserveAspectRatio="xMidYMid meet" version="1.0"><path fill="#ffffff" d="M 123.898438 239.558594 C 121.558594 239.5625 119.214844 239.488281 116.878906 239.347656 C 114.539062 239.203125 112.207031 238.992188 109.882812 238.703125 C 107.558594 238.417969 105.242188 238.0625 102.941406 237.632812 C 100.636719 237.207031 98.347656 236.707031 96.078125 236.140625 C 93.804688 235.570312 91.550781 234.933594 89.316406 234.226562 C 87.082031 233.523438 84.875 232.746094 82.6875 231.90625 C 80.503906 231.0625 78.34375 230.152344 76.214844 229.179688 C 74.082031 228.203125 71.984375 227.164062 69.917969 226.0625 C 67.851562 224.957031 65.820312 223.792969 63.828125 222.5625 C 61.832031 221.335938 59.878906 220.046875 57.960938 218.699219 C 56.046875 217.351562 54.171875 215.945312 52.34375 214.480469 C 50.515625 213.019531 48.730469 211.5 46.996094 209.925781 C 45.257812 208.355469 43.574219 206.730469 41.9375 205.054688 C 40.300781 203.378906 38.71875 201.652344 37.1875 199.878906 C 35.65625 198.105469 34.179688 196.285156 32.761719 194.421875 C 31.34375 192.558594 29.984375 190.652344 28.679688 188.703125 C 27.378906 186.757812 26.140625 184.769531 24.957031 182.746094 C 23.777344 180.722656 22.664062 178.664062 21.609375 176.574219 C 20.554688 174.480469 19.566406 172.359375 18.644531 170.207031 C 17.71875 168.050781 16.863281 165.875 16.074219 163.667969 C 15.285156 161.460938 14.5625 159.234375 13.910156 156.984375 C 13.257812 154.734375 12.675781 152.464844 12.164062 150.179688 C 11.648438 147.894531 11.207031 145.597656 10.832031 143.28125 C 10.460938 140.96875 10.160156 138.648438 9.929688 136.316406 C 9.699219 133.984375 9.542969 131.648438 9.457031 129.308594 C 9.371094 126.96875 9.355469 124.625 9.414062 122.285156 C 9.472656 119.941406 9.601562 117.605469 9.800781 115.269531 C 10.003906 112.9375 10.273438 110.609375 10.617188 108.292969 C 10.964844 105.976562 11.378906 103.671875 11.863281 101.378906 C 12.347656 99.085938 12.902344 96.8125 13.527344 94.554688 C 14.152344 92.296875 14.847656 90.0625 15.609375 87.847656 C 16.371094 85.632812 17.203125 83.441406 18.097656 81.277344 C 18.996094 79.113281 19.957031 76.976562 20.984375 74.875 C 22.011719 72.769531 23.105469 70.695312 24.257812 68.660156 C 25.414062 66.621094 26.628906 64.621094 27.910156 62.65625 C 29.1875 60.691406 30.523438 58.769531 31.917969 56.890625 C 33.316406 55.007812 34.765625 53.171875 36.277344 51.378906 C 37.785156 49.585938 39.347656 47.84375 40.960938 46.144531 C 42.578125 44.449219 44.246094 42.804688 45.960938 41.210938 C 47.675781 39.617188 49.441406 38.078125 51.253906 36.589844 C 53.0625 35.105469 54.917969 33.675781 56.820312 32.304688 C 58.71875 30.933594 60.65625 29.621094 62.636719 28.367188 C 64.617188 27.117188 66.632812 25.925781 68.683594 24.796875 C 70.738281 23.667969 72.824219 22.601562 74.941406 21.601562 C 77.058594 20.601562 79.207031 19.664062 81.382812 18.796875 C 83.554688 17.929688 85.757812 17.125 87.980469 16.390625 C 90.207031 15.660156 92.449219 14.992188 94.714844 14.398438 C 96.980469 13.800781 99.261719 13.273438 101.5625 12.820312 C 103.859375 12.363281 106.167969 11.976562 108.492188 11.664062 C 110.8125 11.347656 113.140625 11.105469 115.476562 10.933594 C 117.8125 10.765625 120.152344 10.664062 122.496094 10.636719 C 124.835938 10.609375 127.179688 10.652344 129.519531 10.769531 C 131.859375 10.886719 134.191406 11.074219 136.519531 11.332031 C 138.847656 11.59375 141.167969 11.921875 143.476562 12.324219 C 145.78125 12.726562 148.074219 13.199219 150.355469 13.742188 C 152.632812 14.285156 154.894531 14.894531 157.136719 15.578125 C 159.375 16.257812 161.59375 17.007812 163.789062 17.824219 C 165.984375 18.644531 168.152344 19.527344 170.296875 20.476562 C 172.4375 21.429688 174.546875 22.445312 176.625 23.523438 C 178.703125 24.605469 180.746094 25.746094 182.753906 26.953125 C 184.765625 28.15625 186.734375 29.425781 188.664062 30.75 C 190.59375 32.078125 192.484375 33.460938 194.328125 34.90625 C 196.175781 36.347656 197.976562 37.84375 199.730469 39.398438 C 201.484375 40.949219 203.1875 42.554688 204.84375 44.214844 C 206.832031 46.199219 208.746094 48.257812 210.582031 50.382812 C 212.417969 52.511719 214.175781 54.703125 215.851562 56.960938 C 217.527344 59.21875 219.117188 61.53125 220.621094 63.90625 C 222.125 66.28125 223.542969 68.707031 224.867188 71.1875 C 226.195312 73.664062 227.425781 76.1875 228.566406 78.757812 C 229.707031 81.328125 230.75 83.933594 231.699219 86.582031 C 232.648438 89.226562 233.496094 91.90625 234.246094 94.613281 C 234.996094 97.320312 235.648438 100.054688 236.195312 102.8125 C 236.746094 105.570312 237.191406 108.339844 237.535156 111.132812 C 237.878906 113.921875 238.121094 116.71875 238.261719 119.527344 C 238.398438 122.335938 238.433594 125.144531 238.363281 127.953125 C 238.296875 130.761719 238.125 133.566406 237.847656 136.363281 C 237.574219 139.160156 237.195312 141.945312 236.714844 144.714844 C 236.234375 147.484375 235.652344 150.230469 234.96875 152.957031 C 234.285156 155.683594 233.503906 158.382812 232.621094 161.050781 C 231.742188 163.722656 230.761719 166.355469 229.683594 168.949219 C 228.609375 171.546875 227.4375 174.101562 226.175781 176.609375 C 224.910156 179.121094 223.554688 181.582031 222.109375 183.992188 C 220.664062 186.402344 219.132812 188.757812 217.511719 191.054688 C 215.894531 193.351562 214.191406 195.589844 212.410156 197.761719 C 210.625 199.933594 208.761719 202.035156 206.824219 204.070312 C 204.886719 206.105469 202.875 208.066406 200.792969 209.953125 C 198.707031 211.839844 196.558594 213.648438 194.339844 215.378906 C 192.125 217.105469 189.847656 218.75 187.507812 220.308594 C 185.171875 221.871094 182.777344 223.34375 180.332031 224.726562 C 177.886719 226.113281 175.390625 227.402344 172.851562 228.605469 C 170.308594 229.804688 167.726562 230.910156 165.101562 231.917969 C 162.480469 232.929688 159.824219 233.839844 157.132812 234.65625 C 154.441406 235.46875 151.726562 236.183594 148.984375 236.796875 C 146.238281 237.410156 143.476562 237.925781 140.695312 238.335938 C 137.917969 238.746094 135.125 239.050781 132.320312 239.257812 C 129.515625 239.460938 126.710938 239.5625 123.898438 239.558594 Z M 123.898438 35.847656 C 122.191406 35.84375 120.488281 35.890625 118.785156 35.984375 C 117.082031 36.078125 115.382812 36.21875 113.683594 36.410156 C 111.988281 36.601562 110.300781 36.84375 108.621094 37.132812 C 106.9375 37.417969 105.265625 37.753906 103.601562 38.140625 C 101.941406 38.523438 100.289062 38.953125 98.652344 39.433594 C 97.015625 39.910156 95.390625 40.4375 93.785156 41.007812 C 92.175781 41.578125 90.585938 42.195312 89.015625 42.859375 C 87.441406 43.523438 85.890625 44.230469 84.359375 44.980469 C 82.824219 45.734375 81.316406 46.527344 79.832031 47.367188 C 78.34375 48.203125 76.882812 49.082031 75.449219 50.003906 C 74.011719 50.925781 72.601562 51.890625 71.222656 52.890625 C 69.84375 53.894531 68.492188 54.9375 67.171875 56.015625 C 65.847656 57.097656 64.558594 58.214844 63.304688 59.367188 C 62.046875 60.519531 60.824219 61.710938 59.632812 62.933594 C 58.445312 64.15625 57.292969 65.414062 56.175781 66.703125 C 55.058594 67.996094 53.980469 69.316406 52.941406 70.667969 C 51.898438 72.019531 50.898438 73.402344 49.933594 74.808594 C 48.972656 76.21875 48.050781 77.65625 47.171875 79.117188 C 46.292969 80.578125 45.457031 82.066406 44.660156 83.574219 C 43.867188 85.085938 43.117188 86.617188 42.410156 88.167969 C 41.703125 89.722656 41.042969 91.292969 40.425781 92.886719 C 39.808594 94.476562 39.238281 96.085938 38.714844 97.707031 C 38.1875 99.332031 37.710938 100.96875 37.28125 102.621094 C 36.851562 104.269531 36.46875 105.933594 36.132812 107.605469 C 35.796875 109.277344 35.511719 110.960938 35.269531 112.648438 C 35.03125 114.339844 34.839844 116.035156 34.699219 117.734375 C 34.558594 119.433594 34.464844 121.136719 34.421875 122.84375 C 34.375 124.550781 34.382812 126.253906 34.433594 127.960938 C 34.488281 129.667969 34.589844 131.367188 34.742188 133.066406 C 34.894531 134.769531 35.09375 136.460938 35.339844 138.148438 C 35.589844 139.839844 35.886719 141.519531 36.230469 143.1875 C 36.574219 144.859375 36.964844 146.519531 37.40625 148.167969 C 37.847656 149.816406 38.332031 151.453125 38.867188 153.074219 C 39.398438 154.695312 39.980469 156.296875 40.605469 157.886719 C 41.230469 159.472656 41.898438 161.042969 42.613281 162.589844 C 43.328125 164.140625 44.089844 165.667969 44.890625 167.171875 C 45.695312 168.679688 46.539062 170.160156 47.425781 171.617188 C 48.316406 173.074219 49.242188 174.503906 50.214844 175.910156 C 51.183594 177.3125 52.191406 178.6875 53.238281 180.035156 C 54.289062 181.378906 55.375 182.695312 56.5 183.980469 C 57.621094 185.261719 58.78125 186.515625 59.976562 187.730469 C 61.171875 188.949219 62.402344 190.132812 63.664062 191.277344 C 64.929688 192.425781 66.222656 193.535156 67.550781 194.609375 C 68.878906 195.679688 70.234375 196.714844 71.621094 197.710938 C 73.007812 198.703125 74.421875 199.660156 75.859375 200.574219 C 77.300781 201.488281 78.769531 202.359375 80.257812 203.1875 C 81.75 204.019531 83.261719 204.804688 84.800781 205.546875 C 86.335938 206.292969 87.890625 206.988281 89.46875 207.644531 C 91.042969 208.296875 92.636719 208.90625 94.246094 209.46875 C 95.859375 210.03125 97.484375 210.546875 99.125 211.015625 C 100.765625 211.488281 102.417969 211.910156 104.082031 212.285156 C 105.746094 212.660156 107.421875 212.984375 109.101562 213.265625 C 110.785156 213.542969 112.476562 213.773438 114.171875 213.957031 C 115.871094 214.136719 117.570312 214.269531 119.273438 214.355469 C 120.980469 214.441406 122.683594 214.476562 124.390625 214.460938 C 126.097656 214.449219 127.800781 214.386719 129.503906 214.277344 C 131.207031 214.164062 132.90625 214.003906 134.597656 213.796875 C 136.292969 213.589844 137.976562 213.332031 139.65625 213.027344 C 141.335938 212.722656 143.003906 212.371094 144.664062 211.96875 C 146.320312 211.570312 147.96875 211.121094 149.601562 210.625 C 151.234375 210.132812 152.851562 209.589844 154.453125 209.003906 C 156.054688 208.414062 157.636719 207.78125 159.203125 207.105469 C 160.769531 206.425781 162.3125 205.703125 163.839844 204.9375 C 165.363281 204.167969 166.863281 203.359375 168.339844 202.507812 C 169.820312 201.652344 171.273438 200.757812 172.699219 199.824219 C 174.125 198.886719 175.523438 197.910156 176.894531 196.894531 C 178.265625 195.878906 179.605469 194.824219 180.914062 193.730469 C 182.226562 192.636719 183.503906 191.507812 184.75 190.339844 C 185.992188 189.175781 187.203125 187.972656 188.382812 186.738281 C 189.558594 185.5 190.699219 184.234375 191.800781 182.933594 C 192.90625 181.632812 193.972656 180.300781 195 178.9375 C 196.027344 177.574219 197.015625 176.183594 197.960938 174.765625 C 198.910156 173.347656 199.816406 171.902344 200.679688 170.429688 C 201.546875 168.960938 202.367188 167.464844 203.148438 165.949219 C 203.925781 164.429688 204.660156 162.890625 205.351562 161.332031 C 206.042969 159.769531 206.691406 158.191406 207.289062 156.59375 C 207.890625 155 208.445312 153.386719 208.953125 151.757812 C 209.460938 150.128906 209.921875 148.484375 210.335938 146.832031 C 210.75 145.175781 211.117188 143.507812 211.4375 141.832031 C 211.753906 140.15625 212.027344 138.472656 212.246094 136.78125 C 212.46875 135.089844 212.644531 133.390625 212.769531 131.691406 C 212.894531 129.988281 212.96875 128.285156 212.996094 126.578125 C 213.023438 124.871094 213 123.167969 212.929688 121.460938 C 212.859375 119.757812 212.742188 118.054688 212.574219 116.359375 C 212.40625 114.660156 212.1875 112.96875 211.921875 111.28125 C 211.65625 109.597656 211.34375 107.921875 210.984375 106.253906 C 210.621094 104.585938 210.214844 102.929688 209.757812 101.285156 C 209.300781 99.640625 208.796875 98.011719 208.25 96.394531 C 207.699219 94.78125 207.105469 93.183594 206.464844 91.601562 C 205.820312 90.019531 205.136719 88.457031 204.40625 86.914062 C 203.675781 85.375 202.902344 83.855469 202.082031 82.355469 C 201.265625 80.859375 200.40625 79.386719 199.503906 77.9375 C 198.601562 76.488281 197.660156 75.066406 196.675781 73.675781 C 195.691406 72.28125 194.667969 70.914062 193.605469 69.578125 C 192.542969 68.242188 191.445312 66.9375 190.308594 65.667969 C 189.171875 64.394531 188 63.15625 186.792969 61.949219 C 184.734375 59.890625 182.578125 57.933594 180.324219 56.085938 C 178.074219 54.234375 175.738281 52.5 173.316406 50.882812 C 170.894531 49.261719 168.398438 47.761719 165.828125 46.386719 C 163.261719 45.011719 160.628906 43.769531 157.9375 42.652344 C 155.246094 41.535156 152.507812 40.550781 149.722656 39.703125 C 146.933594 38.855469 144.109375 38.144531 141.253906 37.574219 C 138.398438 37.003906 135.519531 36.574219 132.617188 36.285156 C 129.71875 35.996094 126.8125 35.851562 123.898438 35.847656 Z M 123.898438 35.847656 " fill-opacity="1" fill-rule="nonzero"/><path fill="#ffffff" d="M 286.164062 300 C 284.5 299.992188 282.898438 299.667969 281.359375 299.023438 C 279.824219 298.382812 278.46875 297.46875 277.296875 296.289062 L 187.042969 206.101562 C 186.460938 205.515625 185.9375 204.878906 185.480469 204.195312 C 185.019531 203.507812 184.632812 202.78125 184.316406 202.015625 C 184 201.253906 183.761719 200.46875 183.597656 199.65625 C 183.4375 198.847656 183.359375 198.027344 183.359375 197.203125 C 183.359375 196.375 183.4375 195.554688 183.597656 194.746094 C 183.761719 193.933594 184 193.148438 184.316406 192.386719 C 184.632812 191.621094 185.019531 190.894531 185.480469 190.210938 C 185.9375 189.523438 186.460938 188.886719 187.042969 188.300781 C 187.628906 187.71875 188.265625 187.195312 188.953125 186.738281 C 189.636719 186.277344 190.363281 185.890625 191.128906 185.574219 C 191.890625 185.257812 192.675781 185.019531 193.488281 184.859375 C 194.296875 184.695312 195.117188 184.617188 195.945312 184.617188 C 196.769531 184.617188 197.589844 184.695312 198.398438 184.859375 C 199.210938 185.019531 199.996094 185.257812 200.757812 185.574219 C 201.523438 185.890625 202.25 186.277344 202.9375 186.738281 C 203.621094 187.195312 204.257812 187.71875 204.84375 188.300781 L 295.03125 278.554688 C 295.90625 279.433594 296.632812 280.421875 297.214844 281.515625 C 297.796875 282.609375 298.210938 283.765625 298.449219 284.980469 C 298.691406 286.199219 298.75 287.421875 298.628906 288.65625 C 298.507812 289.890625 298.207031 291.082031 297.734375 292.226562 C 297.261719 293.375 296.632812 294.425781 295.847656 295.386719 C 295.0625 296.347656 294.152344 297.171875 293.125 297.863281 C 292.09375 298.554688 290.988281 299.082031 289.800781 299.445312 C 288.617188 299.808594 287.402344 299.996094 286.164062 300 Z M 286.164062 300 " fill-opacity="1" fill-rule="nonzero"/></svg>