<svg xmlns="http://www.w3.org/2000/svg" xmlns:xlink="http://www.w3.org/1999/xlink" width="400" zoomAndPan="magnify" viewBox="0 0 300 299.999988" height="400" preserveAspectRatio="xMidYMid meet" version="1.0"><defs><clipPath id="3d0f8553cd"><path d="M 0 0 L 299.988281 0 L 299.988281 299.992188 L 0 299.992188 Z M 0 0 " clip-rule="nonzero"/></clipPath></defs><path fill="#ffffff" d="M 149.996094 282.660156 C 76.84375 282.660156 17.328125 223.148438 17.328125 149.996094 C 17.328125 76.84375 76.84375 17.328125 149.996094 17.328125 C 223.148438 17.328125 282.660156 76.84375 282.660156 149.996094 C 282.660156 223.148438 223.148438 282.660156 149.996094 282.660156 Z M 255.960938 44.03125 C 227.65625 15.726562 190.023438 0.136719 149.996094 0.136719 C 109.964844 0.136719 72.332031 15.726562 44.03125 44.03125 C 15.722656 72.332031 0.136719 109.964844 0.136719 149.996094 C 0.136719 190.023438 15.722656 227.65625 44.03125 255.960938 C 72.332031 284.265625 109.964844 299.855469 149.996094 299.855469 C 190.023438 299.855469 227.65625 284.265625 255.960938 255.960938 C 284.265625 227.65625 299.851562 190.023438 299.851562 149.996094 C 299.851562 109.964844 284.265625 72.332031 255.960938 44.03125 " fill-opacity="1" fill-rule="nonzero"/><g clip-path="url(#3d0f8553cd)"><path fill="#ffffff" d="M 149.996094 17.464844 C 76.917969 17.464844 17.464844 76.917969 17.464844 149.996094 C 17.464844 223.074219 76.917969 282.523438 149.996094 282.523438 C 223.074219 282.523438 282.523438 223.074219 282.523438 149.996094 C 282.523438 76.917969 223.074219 17.464844 149.996094 17.464844 Z M 149.996094 282.796875 C 76.765625 282.796875 17.191406 223.222656 17.191406 149.996094 C 17.191406 76.765625 76.765625 17.191406 149.996094 17.191406 C 223.222656 17.191406 282.796875 76.765625 282.796875 149.996094 C 282.796875 223.222656 223.222656 282.796875 149.996094 282.796875 Z M 149.996094 0.273438 C 110.003906 0.273438 72.402344 15.847656 44.125 44.125 C 15.847656 72.402344 0.273438 110.003906 0.273438 149.996094 C 0.273438 189.988281 15.847656 227.585938 44.125 255.863281 C 72.402344 284.144531 110.003906 299.71875 149.996094 299.71875 C 189.988281 299.71875 227.585938 284.144531 255.863281 255.863281 C 284.144531 227.585938 299.714844 189.988281 299.714844 149.996094 C 299.714844 110.003906 284.144531 72.402344 255.863281 44.125 C 227.585938 15.847656 189.988281 0.273438 149.996094 0.273438 Z M 149.996094 299.992188 C 109.929688 299.992188 72.261719 284.390625 43.933594 256.058594 C 15.601562 227.726562 0 190.0625 0 149.996094 C 0 109.929688 15.601562 72.261719 43.933594 43.933594 C 72.261719 15.601562 109.929688 0 149.996094 0 C 190.058594 0 227.726562 15.601562 256.058594 43.933594 C 284.390625 72.261719 299.988281 109.929688 299.988281 149.996094 C 299.988281 190.058594 284.390625 227.726562 256.058594 256.058594 C 227.726562 284.390625 190.058594 299.992188 149.996094 299.992188 " fill-opacity="1" fill-rule="nonzero"/></g><path fill="#ffffff" d="M 220.203125 94.378906 L 79.789062 94.378906 C 75.039062 94.378906 71.191406 98.230469 71.191406 102.976562 C 71.191406 107.722656 75.039062 111.570312 79.789062 111.570312 L 220.203125 111.570312 C 224.949219 111.570312 228.800781 107.722656 228.800781 102.976562 C 228.800781 98.230469 224.949219 94.378906 220.203125 94.378906 " fill-opacity="1" fill-rule="nonzero"/><path fill="#ffffff" d="M 79.789062 94.515625 C 75.121094 94.515625 71.328125 98.3125 71.328125 102.976562 C 71.328125 107.640625 75.121094 111.4375 79.789062 111.4375 L 220.203125 111.4375 C 224.867188 111.4375 228.664062 107.640625 228.664062 102.976562 C 228.664062 98.3125 224.867188 94.515625 220.203125 94.515625 Z M 220.203125 111.707031 L 79.789062 111.707031 C 74.972656 111.707031 71.054688 107.792969 71.054688 102.976562 C 71.054688 98.160156 74.972656 94.242188 79.789062 94.242188 L 220.203125 94.242188 C 225.019531 94.242188 228.933594 98.160156 228.933594 102.976562 C 228.933594 107.792969 225.019531 111.707031 220.203125 111.707031 " fill-opacity="1" fill-rule="nonzero"/><path fill="#ffffff" d="M 220.203125 141.398438 L 79.789062 141.398438 C 75.039062 141.398438 71.191406 145.246094 71.191406 149.996094 C 71.191406 154.742188 75.039062 158.59375 79.789062 158.59375 L 220.203125 158.59375 C 224.949219 158.59375 228.800781 154.742188 228.800781 149.996094 C 228.800781 145.246094 224.949219 141.398438 220.203125 141.398438 " fill-opacity="1" fill-rule="nonzero"/><path fill="#ffffff" d="M 79.789062 141.535156 C 75.121094 141.535156 71.328125 145.332031 71.328125 149.996094 C 71.328125 154.660156 75.121094 158.457031 79.789062 158.457031 L 220.203125 158.457031 C 224.867188 158.457031 228.664062 154.660156 228.664062 149.996094 C 228.664062 145.332031 224.867188 141.535156 220.203125 141.535156 Z M 220.203125 158.726562 L 79.789062 158.726562 C 74.972656 158.726562 71.054688 154.808594 71.054688 149.996094 C 71.054688 145.179688 74.972656 141.261719 79.789062 141.261719 L 220.203125 141.261719 C 225.019531 141.261719 228.933594 145.179688 228.933594 149.996094 C 228.933594 154.808594 225.019531 158.726562 220.203125 158.726562 " fill-opacity="1" fill-rule="nonzero"/><path fill="#ffffff" d="M 220.203125 188.417969 L 79.789062 188.417969 C 75.039062 188.417969 71.191406 192.265625 71.191406 197.015625 C 71.191406 201.761719 75.039062 205.609375 79.789062 205.609375 L 220.203125 205.609375 C 224.949219 205.609375 228.800781 201.761719 228.800781 197.015625 C 228.800781 192.265625 224.949219 188.417969 220.203125 188.417969 " fill-opacity="1" fill-rule="nonzero"/><path fill="#ffffff" d="M 79.789062 188.554688 C 75.121094 188.554688 71.328125 192.351562 71.328125 197.015625 C 71.328125 201.679688 75.121094 205.472656 79.789062 205.472656 L 220.203125 205.472656 C 224.867188 205.472656 228.664062 201.679688 228.664062 197.015625 C 228.664062 192.351562 224.867188 188.554688 220.203125 188.554688 Z M 220.203125 205.746094 L 79.789062 205.746094 C 74.972656 205.746094 71.054688 201.828125 71.054688 197.015625 C 71.054688 192.199219 74.972656 188.28125 79.789062 188.28125 L 220.203125 188.28125 C 225.019531 188.28125 228.933594 192.199219 228.933594 197.015625 C 228.933594 201.828125 225.019531 205.746094 220.203125 205.746094 " fill-opacity="1" fill-rule="nonzero"/></svg>